<?xml version="1.0" standalone="no"?>
<!DOCTYPE svg PUBLIC "-//W3C//DTD SVG 1.1//EN" "http://www.w3.org/Graphics/SVG/1.1/DTD/svg11.dtd" >
<svg xmlns="http://www.w3.org/2000/svg">
<metadata>Generated by IcoMoon</metadata>
<defs>
<font id="icomoon" horiz-adv-x="1024">
<font-face units-per-em="1024" ascent="960" descent="-64" />
<missing-glyph horiz-adv-x="1024" />
<glyph unicode="&#x20;" horiz-adv-x="512" d="" />
<glyph unicode="&#xe900;" glyph-name="add_circle" d="M726 406v84h-172v172h-84v-172h-172v-84h172v-172h84v172h172zM512 874q176 0 301-125t125-301-125-301-301-125-301 125-125 301 125 301 301 125z" />
<glyph unicode="&#xe901;" glyph-name="arrow_lift" d="M246.784 491.691l443.051 442.709c24.917 24.917 62.464 24.917 87.381 0s24.917-62.464 0-87.381l-399.36-399.36 399.36-399.36c24.917-24.917 24.917-62.464 0-87.381s-62.464-24.917-87.381 0l-443.051 443.392c-24.917 24.917-24.917 62.464 0 87.381z" />
<glyph unicode="&#xe902;" glyph-name="check_circle" d="M426 234l384 384-60 62-324-324-152 152-60-60zM512 874q176 0 301-125t125-301-125-301-301-125-301 125-125 301 125 301 301 125z" />
<glyph unicode="&#xe903;" glyph-name="close" d="M810 686l-238-238 238-238-60-60-238 238-238-238-60 60 238 238-238 238 60 60 238-238 238 238z" />
<glyph unicode="&#xe904;" glyph-name="favorite" d="M512 50l-62 56c-220 200-364 330-364 492 0 132 102 234 234 234 74 0 146-36 192-90 46 54 118 90 192 90 132 0 234-102 234-234 0-162-144-294-364-494z" />
<glyph unicode="&#xe905;" glyph-name="keyboard_arrow_right" d="M366 262l196 196-196 196 60 60 256-256-256-256z" />
<glyph unicode="&#xe906;" glyph-name="remove_circle_outline" d="M512 106q140 0 241 101t101 241-101 241-241 101-241-101-101-241 101-241 241-101zM512 874q176 0 301-125t125-301-125-301-301-125-301 125-125 301 125 301 301 125zM298 490h428v-84h-428v84z" />
<glyph unicode="&#xe907;" glyph-name="about" d="M505.165 959.949c-282.714-3.737-508.879-236.047-505.091-518.837 3.763-282.586 236.073-508.828 518.786-505.040s508.879 236.073 505.065 518.863c-3.712 282.637-236.073 508.803-518.761 505.014v0 0zM561.918 789.333c52.017 0 67.402-30.181 67.402-64.688 0-43.185-34.584-83.017-93.487-83.017-49.303 0-72.752 24.805-71.37 65.738 0.026 34.533 28.952 81.967 97.455 81.967v0zM428.471 128.038c-35.582 0-61.591 21.605-36.76 116.552l40.805 168.287c7.040 26.981 8.217 37.784 0 37.784-10.649 0-56.855-18.662-84.143-36.99l-17.74 29.106c86.55 72.24 186.052 114.657 228.7 114.657 35.557 0 41.445-42.084 23.705-106.798l-46.743-176.965c-8.243-31.282-4.685-42.084 3.558-42.084 10.649 0 45.643 12.927 80.022 39.96l20.095-26.981c-84.118-84.118-175.89-116.526-211.498-116.526v0 0z" />
<glyph unicode="&#xe908;" glyph-name="thumb_down" d="M810 832h172v-512h-172v512zM640 832q34 0 60-26t26-60v-426q0-34-26-60l-280-282-46 46q-18 18-18 44v14l42 196h-270q-34 0-60 25t-26 59l2 4h-2v82q0 16 6 32l130 300q20 52 78 52h384z" />
<glyph unicode="&#xe909;" glyph-name="thumb_up" d="M982 534l-2-4h2v-82q0-16-6-32l-130-300q-20-52-78-52h-384q-34 0-60 26t-26 60v426q0 34 26 60l280 282 46-46q18-18 18-44v-14l-42-196h270q34 0 60-25t26-59zM42 64v512h172v-512h-172z" />
<glyph unicode="&#xe90a;" d="M853.333 85.333h-682.667c-46.933 0-85.333 38.4-85.333 85.333v554.667c0 46.933 38.4 85.333 85.333 85.333h682.667c46.933 0 85.333-38.4 85.333-85.333v-554.667c0-46.933-38.4-85.333-85.333-85.333z" />
<glyph unicode="&#xe90b;" d="M682.667 618.667c0-35.346 28.654-64 64-64s64 28.654 64 64c0 35.346-28.654 64-64 64s-64-28.654-64-64z" />
<glyph unicode="&#xe90c;" d="M426.667 618.667l-234.667-341.333h469.333z" />
<glyph unicode="&#xe90d;" d="M661.333 490.667l-170.667-213.333h341.333z" />
<glyph unicode="&#xe90e;" d="M597.333 149.333c0-117.821 95.513-213.333 213.333-213.333s213.333 95.513 213.333 213.333c0 117.821-95.513 213.333-213.333 213.333s-213.333-95.513-213.333-213.333z" />
<glyph unicode="&#xe90f;" d="M768 277.333h85.333v-256h-85.333z" />
<glyph unicode="&#xe910;" d="M682.667 192h256v-85.333h-256z" />
<glyph unicode="&#xe911;" d="M476.8 536.4c0-16.458 13.342-29.8 29.8-29.8s29.8 13.342 29.8 29.8c0 16.458-13.342 29.8-29.8 29.8s-29.8-13.342-29.8-29.8z" />
<glyph unicode="&#xe912;" d="M717.8 845.5c-83.5 0-158.4-65.4-211.2-122-52.7 56.6-127.7 122-211.2 122-159.5 0-273.9-129.3-273.9-288.9 0-159.5 407.8-509.6 485.1-509.6s485.1 350.1 485.1 509.7c0.1 159.5-114.4 288.8-273.9 288.8z" />
<glyph unicode="&#xe913;" d="M506.6 34c-22 0-61 20.1-116 59.6-51.5 37-109.9 86.4-164.6 139-65.4 63-217.5 220.6-217.5 324 0 81.4 28.6 157.1 80.6 213.1 53.2 57.2 126.4 88.8 206.3 88.8 40 0 81.8-14.1 124.2-41.9 28.1-18.4 56.6-42.8 86.9-74.2 30.3 31.5 58.9 55.8 86.9 74.2 42.5 27.8 84.3 41.9 124.2 41.9 79.9 0 153.2-31.5 206.3-88.8 52-56 80.6-131.7 80.6-213.1 0-103.4-152.1-261-217.5-324-54.6-52.6-113.1-102-164.6-139-54.8-39.5-93.8-59.6-115.8-59.6zM295.4 832.5c-72.6 0-139.1-28.6-187.3-80.4-47.5-51.2-73.7-120.6-73.7-195.4 0-64.8 78.3-178.9 209.6-305.3 53.8-51.8 111.2-100.3 161.7-136.6 56.1-40.4 88.9-54.8 100.9-54.8s44.7 14.4 100.9 54.8c50.5 36.3 108 84.9 161.7 136.6 131.2 126.4 209.6 240.5 209.6 305.3 0 74.9-26.2 144.2-73.7 195.4-48.2 51.9-114.7 80.4-187.3 80.4-61.8 0-127.8-38.5-201.7-117.9-2.5-2.6-5.9-4.1-9.5-4.1s-7.1 1.5-9.5 4.1c-73.9 79.4-139.9 117.9-201.7 117.9z" />
<glyph unicode="&#xe914;" d="M320.1 544.4c0-18.667 15.133-33.8 33.8-33.8s33.8 15.133 33.8 33.8c0 18.667-15.133 33.8-33.8 33.8s-33.8-15.133-33.8-33.8z" />
<glyph unicode="&#xe915;" d="M625.5 544.4c0-18.667 15.133-33.8 33.8-33.8s33.8 15.133 33.8 33.8c0 18.667-15.133 33.8-33.8 33.8s-33.8-15.133-33.8-33.8z" />
<glyph unicode="&#xe916;" d="M411.6 421.5c0-52.3 42.8-95 95-95 52.3 0 95 42.8 95 95v31.7h-190v-31.7z" />
<glyph unicode="&#xe917;" d="M506.6 313.5c-59.6 0-108 48.5-108 108v31.7c0 7.2 5.8 13 13 13h190.1c7.2 0 13-5.8 13-13v-31.7c0-59.5-48.5-108-108.1-108zM424.6 440.2v-18.7c0-45.2 36.8-82 82-82s82 36.8 82 82v18.7h-164z" />
<glyph unicode="&#xe918;" d="M450.4 381.1c0-15.188 24.49-27.5 54.7-27.5s54.7 12.312 54.7 27.5c0 15.188-24.49 27.5-54.7 27.5s-54.7-12.312-54.7-27.5z" />
<glyph unicode="&#xe919;" d="M256 457.3c0-15.188 14.372-27.5 32.1-27.5s32.1 12.312 32.1 27.5c0 15.188-14.372 27.5-32.1 27.5s-32.1-12.312-32.1-27.5z" />
<glyph unicode="&#xe91a;" d="M703.3 457.3c0-15.188 14.372-27.5 32.1-27.5s32.1 12.312 32.1 27.5c0 15.188-14.372 27.5-32.1 27.5s-32.1-12.312-32.1-27.5z" />
<glyph unicode="&#xe91b;" d="M947.8 405.9c0-242-196.2-438.2-438.2-438.2s-438.2 196.2-438.2 438.2c0 134.6 60.7 255.1 156.3 335.5 76.2 64.1 174.5 102.7 281.9 102.7 242 0 438.2-196.2 438.2-438.2z" />
<glyph unicode="&#xe91c;" d="M158.2 670h702.8v-26h-702.8zM91.1 553.4h837v-26h-837zM77.1 436.9h865v-26h-865zM77.1 320.4h865v-26h-865zM132.8 203.8h753.6v-26h-753.6z" />
<glyph unicode="&#xe91d;" d="M535.5 597.5c-29.8-20.9-201.8 2.7-309.4 49.7-0.1-4.1-0.4-8.1-0.4-12.2v-279c0-216.6 119.8-393.8 266.3-393.8s266.3 177.2 266.3 393.8v252.4l-203.5 116.8-19.3-127.7z" />
<glyph unicode="&#xe91e;" d="M491.9-50.7c-154 0-279.3 182.5-279.3 406.8v279c0 2.7 0.1 5.2 0.2 7.6 0.1 1.7 0.2 3.3 0.2 4.8l0.4 19.4 17.8-7.8c48.1-21 115.7-39.5 180.6-49.4 62.2-9.5 98.5-7.7 111.8-3.5l21.2 139.7 226.4-130v-259.9c0-224.2-125.3-406.7-279.3-406.7zM238.6 628v-272c0-51.7 6.9-101.9 20.5-149.3 13.1-45.5 31.7-86.4 55.5-121.5 23.5-34.7 50.7-61.9 80.8-80.9 30.7-19.3 63.2-29.1 96.5-29.1s65.8 9.8 96.5 29.1c30.1 18.9 57.3 46.1 80.8 80.9 23.7 35.1 42.4 76 55.5 121.5 13.6 47.4 20.5 97.6 20.5 149.3v244.9l-180.4 103.6-17.4-114.4-4.6-3.2c-9.6-6.7-27-10-53.1-10h-0.1c-22.6 0-50.8 2.5-81.7 7.2-59.4 9-121.2 25.1-169.3 43.9z" />
<glyph unicode="&#xe91f;" d="M559 159.4l-42.1-11.4h-41.9l-37.8 11.5v23h-2.2l-144.3-174.8c58.7-28.9 126.6-45.4 199-45.4 77.2 0 149.2 18.7 210.5 51.2l-141.2 168.9v-23z" />
<glyph unicode="&#xe920;" d="M489.7-50.7c-71.7 0-142.5 16.2-204.8 46.8-3.6 1.8-6.1 5-7 8.9-0.8 3.9 0.2 7.9 2.7 11l144.4 174.7c2.5 3 6.1 4.7 10 4.7h2.2c7.2 0 13-5.8 13-13v-13.3l26.7-8.1h38.2l30.9 8.4v13c0 5.5 3.4 10.4 8.6 12.2 5.1 1.9 10.9 0.3 14.4-3.9l141.2-168.9c2.5-3 3.5-7 2.8-10.8-0.8-3.8-3.2-7.2-6.7-9-65.1-34.5-140-52.7-216.6-52.7zM311.4 12.4c55-24.3 116.2-37.1 178.3-37.1 66.8 0 132.1 14.6 190 42.4l-111.1 133c-1.6-1.8-3.7-3.1-6.2-3.8l-42.1-11.5c-1.1-0.3-2.3-0.5-3.4-0.5h-41.9c-1.3 0-2.6 0.2-3.8 0.6l-37.8 11.5c-2.8 0.9-5.2 2.6-6.8 4.9l-115.2-139.5z" />
<glyph unicode="&#xe921;" d="M509.6-45.2c-60.9 0-120 11.9-175.6 35.5-53.7 22.7-102 55.3-143.4 96.7s-74 89.7-96.7 143.4c-23.5 55.6-35.5 114.6-35.5 175.5 0 133.5 58.7 259.4 160.9 345.4 39.8 33.5 84.6 59.6 133.1 77.6 50.2 18.7 103.1 28.1 157.2 28.1 60.9 0 120-11.9 175.6-35.5 53.7-22.7 102-55.3 143.4-96.7s74-89.7 96.7-143.4c23.5-55.6 35.5-114.7 35.5-175.6s-11.9-120-35.5-175.6c-22.7-53.7-55.3-102-96.7-143.4s-89.7-74-143.4-96.7c-55.6-23.4-114.7-35.3-175.6-35.3zM509.6 831.1c-51 0-100.8-8.9-148.1-26.5-45.7-17-87.9-41.6-125.4-73.1-96.4-81.1-151.7-199.7-151.7-325.6 0-57.4 11.2-113.1 33.4-165.5 21.4-50.6 52.1-96.1 91.1-135.1s84.5-69.7 135.1-91.1c52.4-22.2 108.1-33.4 165.5-33.4s113.1 11.2 165.5 33.4c50.6 21.4 96.1 52.1 135.1 91.1s69.7 84.5 91.1 135.1c22.2 52.4 33.4 108.1 33.4 165.5s-11.2 113.1-33.4 165.5c-21.4 50.6-52.1 96.1-91.1 135.1s-84.5 69.7-135.1 91.1c-52.3 22.3-108 33.5-165.4 33.5z" />
<glyph unicode="&#xe922;" d="M562.5 160.1l-45.8-14.5h-45.7l-41.1 14.5v148.9h132.6z" />
<glyph unicode="&#xe923;" d="M516.7 132.6h-45.7c-1.5 0-2.9 0.3-4.3 0.7l-41.2 14.5c-5.2 1.8-8.7 6.7-8.7 12.3v148.9c0 7.2 5.8 13 13 13h132.7c7.2 0 13-5.8 13-13v-148.9c0-5.7-3.7-10.7-9.1-12.4l-45.9-14.5c-1.2-0.4-2.5-0.6-3.8-0.6zM473.3 158.6h41.4l34.9 11v126.4h-106.7v-126.7l30.4-10.7z" />
<glyph unicode="&#xe924;" d="M729.9 552.5c0-28.829 19.162-52.2 42.8-52.2s42.8 23.371 42.8 52.2c0 28.829-19.162 52.2-42.8 52.2s-42.8-23.371-42.8-52.2z" />
<glyph unicode="&#xe925;" d="M772.7 487.3c-30.8 0-55.8 29.3-55.8 65.2 0 36 25 65.2 55.8 65.2s55.8-29.3 55.8-65.2c0-35.9-25-65.2-55.8-65.2zM772.7 591.8c-16.4 0-29.8-17.6-29.8-39.2s13.4-39.2 29.8-39.2 29.8 17.6 29.8 39.2-13.4 39.2-29.8 39.2z" />
<glyph unicode="&#xe926;" d="M715.4 472.7c0-17.176 20.326-31.1 45.4-31.1s45.4 13.924 45.4 31.1c0 17.176-20.326 31.1-45.4 31.1s-45.4-13.924-45.4-31.1z" />
<glyph unicode="&#xe927;" d="M760.8 428.6c-32.7 0-58.4 19.4-58.4 44.1s25.6 44.1 58.4 44.1 58.4-19.4 58.4-44.1c-0.1-24.7-25.7-44.1-58.4-44.1zM760.8 490.8c-15.3 0-32.4-7.7-32.4-18.1 0-8.5 13.8-18.1 32.4-18.1 15.3 0 32.4 7.7 32.4 18.1-0.1 8.5-13.9 18.1-32.4 18.1z" />
<glyph unicode="&#xe928;" d="M180.4 472.7c0-17.176 20.326-31.1 45.4-31.1s45.4 13.924 45.4 31.1c0 17.176-20.326 31.1-45.4 31.1s-45.4-13.924-45.4-31.1z" />
<glyph unicode="&#xe929;" d="M225.8 428.6c-32.7 0-58.4 19.4-58.4 44.1s25.6 44.1 58.4 44.1 58.4-19.4 58.4-44.1c0-24.7-25.7-44.1-58.4-44.1zM225.8 490.8c-15.3 0-32.4-7.7-32.4-18.1 0-8.5 13.8-18.1 32.4-18.1 15.3 0 32.4 7.7 32.4 18.1 0 8.5-13.9 18.1-32.4 18.1z" />
<glyph unicode="&#xe92a;" d="M168.3 552.5c0-28.829 19.162-52.2 42.8-52.2s42.8 23.371 42.8 52.2c0 28.829-19.162 52.2-42.8 52.2s-42.8-23.371-42.8-52.2z" />
<glyph unicode="&#xe92b;" d="M211.1 487.3c-30.8 0-55.8 29.3-55.8 65.2 0 36 25 65.2 55.8 65.2s55.8-29.3 55.8-65.2c-0.1-35.9-25.1-65.2-55.8-65.2zM211.1 591.8c-16.4 0-29.8-17.6-29.8-39.2s13.4-39.2 29.8-39.2 29.8 17.6 29.8 39.2c-0.1 21.6-13.4 39.2-29.8 39.2z" />
<glyph unicode="&#xe92c;" d="M535.5 638.9c-29.8-14.1-201.8 1.8-309.4 33.6-0.1-2.8-0.4-5.5-0.4-8.2v-188.7c0-146.5 119.8-266.3 266.3-266.3s266.3 119.8 266.3 266.3v170.6l-203.3 79-19.5-86.3z" />
<glyph unicode="&#xe92d;" d="M491.9 196.3c-74.3 0-144.4 29.1-197.3 82s-82 123-82 197.3v188.7c0 2 0.1 4 0.3 5.6 0.1 1.1 0.1 2.1 0.2 3l0.5 16.8 16.2-4.8c48.4-14.3 116.2-26.8 181.5-33.6 58.8-6.1 97.6-5.6 113.2-2.4l21 93.8 225.7-87.7v-179.6c0-74.3-29.1-144.4-82-197.3s-123-81.8-197.3-81.8zM238.6 655.5v-179.9c0-67.4 26.4-130.9 74.4-178.9s111.5-74.4 178.9-74.4 130.9 26.4 178.9 74.4 74.4 111.5 74.4 178.9v161.7l-181 70.3-17.4-77.8-5.7-2.7c-23.8-11.3-100.6-4.9-132.4-1.6-59.9 6.2-122 17.2-170.1 30z" />
<glyph unicode="&#xe92e;" d="M491.7 930.6c-143.7 0-261.4-115.4-265.9-258.1 107.6-31.8 279.6-47.7 309.4-33.6l19.4 86.3 203.3-79v18c0.1 146.5-119.8 266.4-266.2 266.4z" />
<glyph unicode="&#xe92f;" d="M489.2 620.7c-29.4 0-62.6 2.9-80.9 4.8-66.8 6.9-136.4 19.8-186.2 34.5l-9.6 2.8 0.3 10c2.2 72.5 32.3 140.5 84.6 191.4 52.5 51.1 121.5 79.2 194.2 79.2 74.3 0 144.4-29.1 197.3-82s82-123 82-197.3v-37l-207 80.4-17.4-77.8-5.7-2.7c-10.1-4.7-29.8-6.3-51.6-6.3zM239.3 682.2c47.5-13.2 110.7-24.5 171.7-30.8 58.8-6.1 97.6-5.6 113.2-2.4l21 93.8 199.8-77.6c-0.2 67-26.7 130.2-74.4 177.9-48 48-111.5 74.4-178.9 74.4-66 0-128.5-25.5-176.1-71.8-45.1-43.8-71.9-101.6-76.3-163.5z" />
<glyph unicode="&#xe930;" d="M345.7 527.1c0-15.961 12.939-28.9 28.9-28.9s28.9 12.939 28.9 28.9c0 15.961-12.939 28.9-28.9 28.9s-28.9-12.939-28.9-28.9z" />
<glyph unicode="&#xe931;" d="M580.2 527.1c0-15.961 12.939-28.9 28.9-28.9s28.9 12.939 28.9 28.9c0 15.961-12.939 28.9-28.9 28.9s-28.9-12.939-28.9-28.9z" />
<glyph unicode="&#xe932;" d="M559.1 451.5c0-37-30.3-67.2-67.2-67.2-37 0-67.2 30.3-67.2 67.2z" />
<glyph unicode="&#xe933;" d="M491.9 371.3c-44.2 0-80.2 36-80.2 80.2 0 7.2 5.8 13 13 13s13-5.8 13-13c0-29.9 24.3-54.2 54.2-54.2s54.2 24.3 54.2 54.2c0 7.2 5.8 13 13 13s13-5.8 13-13c0-44.2-36-80.2-80.2-80.2z" />
<glyph unicode="&#xe934;" glyph-name="change" d="M927.855 543.999c-17.657-0.002-31.97-14.316-31.97-31.974 0-0.009 0-0.018 0-0.027v-351.998c0-0.024 0-0.052 0-0.080 0-52.912-42.894-95.805-95.805-95.805-0.028 0-0.056 0-0.084 0h-575.995c-25.648 0-49.808 9.931-67.943 28.061s-28.177 42.182-28.177 67.824v576c0.047 53.067 43.053 96.073 96.115 96.12h352.004c17.657 0 31.97 14.313 31.97 31.97s-14.313 31.97-31.97 31.97h-352c-0.009 0-0.019 0-0.029 0-88.383 0-160.031-71.648-160.031-160.031 0-0.010 0-0.020 0-0.031v-575.998c0-0.037 0-0.080 0-0.123 0-88.201 71.501-159.702 159.702-159.702 0.126 0 0.251 0 0.377 0h575.98c0.113 0 0.246 0 0.38 0 88.059 0 159.446 71.386 159.446 159.446 0 0.133 0 0.267 0 0.4v351.979c0 0.008 0 0.016 0 0.025 0 17.657-14.313 31.972-31.97 31.974zM372.547 509.655c-6.872-16.355-10.865-35.365-10.865-55.307 0-40.373 16.365-76.924 42.824-103.381l9.602-9.616c26.394-26.436 62.88-42.79 103.186-42.79 0.095 0 0.191 0 0.286 0h0.039c0.102 0 0.223 0 0.344 0 40.266 0 76.715 16.337 103.082 42.745l296.092 296.009c26.501 26.461 42.896 63.039 42.896 103.446 0 40.068-16.121 76.371-42.23 102.777l-8.826 8.938c-26.527 26.897-63.373 43.559-104.11 43.559-40.275 0-76.746-16.286-103.187-42.631l-296.851-295.356c-13.56-13.448-24.479-29.535-31.926-47.43zM449.973 512.683l296.856 295.36c14.791 14.802 35.231 23.958 57.809 23.958 0.075 0 0.15 0 0.225 0h0.371c22.788-0.040 43.382-9.4 58.181-24.469l8.852-8.967c14.667-14.853 23.727-35.274 23.727-57.81 0-22.724-9.211-43.297-24.102-58.189l-296.090-295.992c-14.801-14.869-35.285-24.070-57.918-24.070-0.093 0-0.186 0-0.278 0h-0.015c-0.074 0-0.162 0-0.249 0-22.648 0-43.143 9.216-57.939 24.102l-9.606 9.606c-14.872 14.886-24.069 35.443-24.069 58.148 0 22.793 9.269 43.421 24.243 58.321zM384.002 320.028c-22.91 22.914-51.177 33.173-78.813 33.173-57.821 0-113.369-44.892-113.369-112.708 0-62.094 50.524-112.437 112.632-112.437 100.202 0 150.397 121.121 79.55 191.979zM349.301 221.932c-3.681-8.879-9.562-16.346-17.007-21.595-7.875-5.549-17.239-8.359-27.816-8.359-0.003 0-0.007 0-0.011 0-26.8 0-48.526 21.726-48.526 48.526 0 0.001 0 0.003 0 0.004 0 7.369 1.369 14.186 4.068 20.262 2.62 5.783 6.19 10.694 10.563 14.752 9.103 8.473 21.29 13.681 34.693 13.754 12.658 0 23.94-4.859 33.52-14.45 7.489-7.492 12.12-16.101 13.763-25.594 1.553-8.981 0.43-18.42-3.248-27.299z" />
<glyph unicode="&#xe935;" glyph-name="chat" d="M512 704c-141.056 0-256-96.512-256-215.296 2.418-73.824 43.067-137.64 102.7-172.526l4.308-3.090c19.292-19.003 31.245-45.411 31.245-74.61 0-8.959-1.125-17.655-3.242-25.954 90.013 60.885 112.029 60.885 120.989 60.885 141.056 0 256 96.512 256 215.296s-114.944 215.296-256 215.296zM384 455.68c-18.128 0.145-32.768 14.874-32.768 33.023 0 18.239 14.785 33.024 33.024 33.024s33.023-14.785 33.024-33.023c-0.145-18.27-14.989-33.024-33.279-33.024 0 0-0.001 0-0.001 0zM512 455.68c-18.128 0.145-32.768 14.874-32.768 33.023 0 18.239 14.785 33.024 33.024 33.024s33.023-14.785 33.024-33.023c-0.145-18.27-14.989-33.024-33.279-33.024 0 0-0.001 0-0.001 0zM640 455.68c-18.128 0.145-32.768 14.874-32.768 33.023 0 18.239 14.785 33.024 33.024 33.024s33.023-14.785 33.024-33.023c-0.145-18.27-14.989-33.024-33.279-33.024 0 0-0.001 0-0.001 0zM512 960c-282.77 0-512-229.23-512-512s229.23-512 512-512c282.77 0 512 229.23 512 512s-229.23 512-512 512zM512 222.208c-7.936 0-45.312-17.664-128-75.52-5.249-3.791-11.813-6.064-18.908-6.064-5.742 0-11.136 1.488-15.817 4.1-9.864 5.45-16.544 15.958-16.544 28.026 0 0.738 0.025 1.47 0.074 2.196 0.893 10.849 2.344 20.737 4.368 30.414 5.355 30.671 8.171 53.199-7.445 68.303-73.75 44.881-122.773 124.006-124.922 214.733-0.006 147.251 137.722 266.803 307.194 266.803s307.2-119.552 307.2-266.496-137.728-266.496-307.2-266.496z" />
<glyph unicode="&#xe936;" glyph-name="data" d="M500.367 542.306c0 58.909-47.926 106.862-106.861 106.862-58.922 0-106.862-47.939-106.862-106.862 0-58.935 47.926-106.861 106.862-106.861s106.861 47.912 106.861 106.861zM794.062 858.499h-564.897c-68.298 0-123.65-55.354-123.65-123.651v-564.897c0-68.298 55.354-123.651 123.65-123.651h564.897c68.298 0 123.651 55.354 123.651 123.651v564.898c0 68.296-55.354 123.65-123.651 123.65zM590.128 226.12h-29.711v1.398c0 92.033-74.865 166.898-166.911 166.898-92.020 0-166.899-74.865-166.899-166.898v-1.398h-29.75v1.398c0 88.107 58.774 165.258 143.453 189.094-50.063 21.254-83.416 71.223-83.416 125.668 0 75.322 61.276 136.611 136.598 136.611 75.324 0 136.598-61.289 136.598-136.611 0-54.445-33.353-104.414-83.416-125.668 84.68-23.835 143.427-100.999 143.454-189.094l-0.001-1.398zM743.329 514.478v-30.704h-194.134v30.704h194.134zM549.194 570.913v30.704h194.134v-30.704h-194.134zM599.552 421.625h143.737v-30.744h-143.737v30.744zM814.175 259.231c0-20.299-16.522-36.808-36.782-36.808h-122.508v27.29h122.508c5.243 0 9.491 4.274 9.491 9.518v386.563c0 5.242-4.248 9.504-9.491 9.504h-285.845v27.304h285.845c20.259 0 36.782-16.509 36.782-36.807v-386.563z" />
<glyph unicode="&#xe937;" d="M931.3 300.6h-843.9v467.1c0 33.5 27.2 60.7 60.7 60.7h722.6c33.5 0 60.7-27.2 60.7-60.7v-467.1z" />
<glyph unicode="&#xe938;" d="M931.3 287.6h-843.9c-7.2 0-13 5.8-13 13v467.1c0 40.6 33 73.7 73.7 73.7h722.6c40.6 0 73.7-33 73.7-73.7v-467.1c-0.1-7.2-5.9-13-13.1-13zM100.4 313.6h817.9v454.1c0 26.3-21.4 47.7-47.7 47.7h-722.5c-26.3 0-47.7-21.4-47.7-47.7v-454.1z" />
<glyph unicode="&#xe939;" d="M870.6 197.8h-722.5c-33.5 0-60.7 27.2-60.7 60.7v50h843.9v-50c0-33.6-27.2-60.7-60.7-60.7z" />
<glyph unicode="&#xe93a;" d="M870.6 184.8h-722.5c-40.6 0-73.7 33-73.7 73.7v63h869.9v-63c0-40.7-33-73.7-73.7-73.7zM100.4 295.4v-37c0-26.3 21.4-47.7 47.7-47.7h722.6c26.3 0 47.7 21.4 47.7 47.7v37h-818z" />
<glyph unicode="&#xe93b;" d="M482.9 259.7c0-14.636 11.864-26.5 26.5-26.5s26.5 11.864 26.5 26.5c0 14.636-11.864 26.5-26.5 26.5s-26.5-11.864-26.5-26.5z" />
<glyph unicode="&#xe93c;" d="M243 606.6c0-56.609 45.891-102.5 102.5-102.5s102.5 45.891 102.5 102.5c0 56.609-45.891 102.5-102.5 102.5s-102.5-45.891-102.5-102.5z" />
<glyph unicode="&#xe93d;" d="M345.5 491.1c-63.7 0-115.5 51.8-115.5 115.5s51.8 115.5 115.5 115.5 115.5-51.8 115.5-115.5-51.7-115.5-115.5-115.5zM345.5 696.2c-49.4 0-89.5-40.2-89.5-89.5s40.2-89.5 89.5-89.5 89.5 40.2 89.5 89.5-40.1 89.5-89.5 89.5z" />
<glyph unicode="&#xe93e;" d="M317.2 606.6c0-15.63 12.67-28.3 28.3-28.3s28.3 12.67 28.3 28.3c0 15.63-12.67 28.3-28.3 28.3s-28.3-12.67-28.3-28.3z" />
<glyph unicode="&#xe93f;" d="M570.7 606.6c0-56.609 45.891-102.5 102.5-102.5s102.5 45.891 102.5 102.5c0 56.609-45.891 102.5-102.5 102.5s-102.5-45.891-102.5-102.5z" />
<glyph unicode="&#xe940;" d="M673.2 491.1c-63.7 0-115.5 51.8-115.5 115.5s51.8 115.5 115.5 115.5 115.5-51.8 115.5-115.5-51.8-115.5-115.5-115.5zM673.2 696.2c-49.4 0-89.5-40.2-89.5-89.5s40.2-89.5 89.5-89.5 89.5 40.2 89.5 89.5-40.2 89.5-89.5 89.5z" />
<glyph unicode="&#xe941;" d="M644.9 606.6c0-15.63 12.67-28.3 28.3-28.3s28.3 12.67 28.3 28.3c0 15.63-12.67 28.3-28.3 28.3s-28.3-12.67-28.3-28.3z" />
<glyph unicode="&#xe942;" d="M560.9 494.4c0-28.3-23.2-51.5-51.5-51.5s-51.5 23.2-51.5 51.5z" />
<glyph unicode="&#xe943;" d="M509.4 429.8c-35.6 0-64.5 29-64.5 64.5 0 7.2 5.8 13 13 13s13-5.8 13-13c0-21.3 17.3-38.5 38.5-38.5 21.3 0 38.5 17.3 38.5 38.5 0 7.2 5.8 13 13 13s13-5.8 13-13c0-35.5-29-64.5-64.5-64.5z" />
<glyph unicode="&#xe944;" d="M423.6 197.8h171.5v-89.6h-171.5z" />
<glyph unicode="&#xe945;" d="M595.1 95.2h-171.5c-7.2 0-13 5.8-13 13v89.6c0 7.2 5.8 13 13 13h171.5c7.2 0 13-5.8 13-13v-89.6c0-7.2-5.8-13-13-13zM436.6 121.2h145.5v63.6h-145.5v-63.6z" />
<glyph unicode="&#xe946;" d="M667.3 61.1h-315.9c-18.8 0-34.2 15.4-34.2 34.2s15.4 34.2 34.2 34.2h315.8c18.8 0 34.2-15.4 34.2-34.2 0-18.9-15.3-34.2-34.1-34.2z" />
<glyph unicode="&#xe947;" d="M667.3 48.1h-315.9c-26 0-47.2 21.2-47.2 47.2s21.2 47.2 47.2 47.2h315.8c26 0 47.2-21.2 47.2-47.2s-21.1-47.2-47.1-47.2zM351.4 116.4c-11.7 0-21.2-9.5-21.2-21.2s9.5-21.2 21.2-21.2h315.8c11.7 0 21.2 9.5 21.2 21.2s-9.5 21.2-21.2 21.2h-315.8z" />
<glyph unicode="&#xe948;" d="M943.5 397.6c0-238.8-193.6-432.3-432.3-432.3s-432.3 193.6-432.3 432.3c0 132.9 59.9 251.7 154.2 331 75.1 63.3 172.2 101.4 278.1 101.4 238.8 0 432.3-193.6 432.3-432.4z" />
<glyph unicode="&#xe949;" d="M279.9 773.8h466.5v-26.9h-466.5zM164.5 658.8h693.4v-26.9h-693.4zM98.2 543.8h825.9v-26.9h-825.9zM84.5 428.8h853.5v-26.9h-853.5zM84.5 313.8h853.5v-26.9h-853.5zM139.4 198.8h743.6v-26.9h-743.6zM228.2 83.8h569.9v-26.9h-569.9z" />
<glyph unicode="&#xe94a;" d="M582.1 190.3l-41.6-13.2h-41.3l-37.2 13.2v26.3h-2.2l-142.4-200.1c57.9-33.1 124.9-52 196.4-52 76.1 0 147.3 21.5 207.7 58.7l-139.4 193.4v-26.3z" />
<glyph unicode="&#xe94b;" d="M513.8-49c-71.2 0-141.4 18.6-203 53.8-3.3 1.9-5.6 5.1-6.5 8.8-0.8 3.7 0 7.6 2.2 10.7l142.4 200.1c2.5 3.5 6.6 5.7 11 5.7h2.2c7.4 0 13.4-6 13.4-13.4v-16.8l26.1-9.2h36.9l30.2 9.6v16.5c0 5.8 3.8 11 9.3 12.8 5.6 1.8 11.6-0.2 15-4.9l139.3-193.5c2.2-3 3-6.8 2.3-10.5s-3-6.9-6.1-8.8c-64.5-39.9-138.7-60.9-214.7-60.9zM337.1 21c54.4-28.3 115.1-43.2 176.7-43.2 66.2 0 130.9 17 188.2 49.3l-110.5 153.5c-1.5-1.4-3.3-2.5-5.3-3.1l-41.6-13.2c-1.3-0.4-2.7-0.6-4.1-0.6h-41.3c-1.5 0-3 0.3-4.5 0.8l-37.3 13.2c-2.4 0.8-4.4 2.3-6 4.2l-114.3-160.9z" />
<glyph unicode="&#xe94c;" d="M585.6 194.6l-45.2-14.3h-45.1l-40.6 14.3v146.9h130.9z" />
<glyph unicode="&#xe94d;" d="M540.4 166.8h-45c-1.5 0-3 0.3-4.5 0.8l-40.6 14.3c-5.4 1.9-9 7-9 12.7v146.9c0 7.4 6 13.4 13.4 13.4h130.9c7.4 0 13.4-6 13.4-13.4v-146.9c0-5.9-3.8-11-9.4-12.8l-45.3-14.3c-1.2-0.5-2.6-0.7-3.9-0.7zM497.6 193.7h40.6l33.9 10.7v123.7h-104v-123.9l29.5-10.5z" />
<glyph unicode="&#xe94e;" d="M224.8 586.9c0-28.443 18.894-51.5 42.2-51.5s42.2 23.057 42.2 51.5c0 28.443-18.894 51.5-42.2 51.5s-42.2-23.057-42.2-51.5z" />
<glyph unicode="&#xe94f;" d="M267 521.9c-30.7 0-55.7 29.1-55.7 65s25 65 55.7 65 55.7-29.1 55.7-65-25-65-55.7-65zM267 625c-15.9 0-28.8-17.1-28.8-38.1s12.9-38.1 28.8-38.1 28.8 17.1 28.8 38.1-12.9 38.1-28.8 38.1z" />
<glyph unicode="&#xe950;" d="M713.2 586.9c0-28.443 18.894-51.5 42.2-51.5s42.2 23.057 42.2 51.5c0 28.443-18.894 51.5-42.2 51.5s-42.2-23.057-42.2-51.5z" />
<glyph unicode="&#xe951;" d="M755.4 521.9c-30.7 0-55.7 29.1-55.7 65s25 65 55.7 65c30.7 0 55.7-29.1 55.7-65s-25-65-55.7-65zM755.4 625c-15.9 0-28.8-17.1-28.8-38.1s12.9-38.1 28.8-38.1 28.8 17.1 28.8 38.1-12.9 38.1-28.8 38.1z" />
<glyph unicode="&#xe952;" d="M511.2-48.1c-60.2 0-118.6 11.8-173.5 35-53.1 22.5-100.8 54.6-141.7 95.5s-73.1 88.6-95.5 141.7c-23.2 55-35 113.3-35 173.5 0 131.9 58 256.3 159 341.3 39.3 33.1 83.6 58.9 131.5 76.7 49.6 18.4 101.9 27.8 155.3 27.8 60.2 0 118.6-11.8 173.5-35 53.1-22.5 100.8-54.6 141.7-95.5s73.1-88.6 95.5-141.7c23.2-55 35-113.3 35-173.5s-11.8-118.6-35-173.5c-22.5-53.1-54.6-100.8-95.5-141.7s-88.6-73.1-141.7-95.5c-55.1-23.3-113.4-35.1-173.6-35.1zM511.2 816.5c-50.2 0-99.3-8.8-145.9-26.1-45-16.7-86.6-41-123.6-72.1-95-79.9-149.4-196.8-149.4-320.7 0-56.6 11.1-111.4 32.9-163.1 21.1-49.9 51.3-94.7 89.8-133.2s83.3-68.7 133.2-89.8c51.6-21.8 106.5-32.9 163.1-32.9s111.4 11.1 163.1 32.9c49.9 21.1 94.7 51.3 133.2 89.8s68.7 83.3 89.8 133.2c21.8 51.6 32.9 106.5 32.9 163.1s-11.3 111.5-33.1 163.1c-21.1 49.9-51.3 94.7-89.8 133.2s-83.3 68.7-133.2 89.8c-51.6 21.8-106.4 32.8-163 32.8z" />
<glyph unicode="&#xe953;" d="M726.5 785.4l-74.2-46.1s-48.2 26.3-78.9 26.3c-30.7 0-83.3 39.5-83.3 39.5l-35.1-85.5c-40 8-119.1 49.3-158.9 71-15.3-31.7-24.2-67-24.2-104.4v-178.7c0-133 108.8-241.8 241.8-241.8s241.8 108.8 241.8 241.8v178.7c0 38.1-9.2 74.1-25 106.2l-4-7z" />
<glyph unicode="&#xe954;" d="M513.6 252.2c-67.9 0-131.9 26.6-180.3 75-48.3 48.3-75 112.4-75 180.3v178.7c0 38.2 8.6 75.3 25.5 110.3l6.1 12.7 12.4-6.8c62.8-34.3 114.3-58.1 144.5-66.9l37.3 90.8 13.9-10.4c19-14.2 56.2-36.8 75.3-36.8 26.9 0 63-16.5 78.4-24.3l64.7 40.2 14.6 26.4 11.4-23c17.5-35.5 26.4-73.3 26.4-112.2v-178.7c0-67.9-26.6-131.9-75-180.3-48.3-48.4-112.3-75-180.2-75zM302.4 771.9c-11.3-27.5-17.1-56.3-17.1-85.7v-178.7c0-60.7 23.8-118 67.1-161.2 43.3-43.3 100.5-67.1 161.2-67.1s118 23.8 161.2 67.1c43.3 43.3 67.1 100.5 67.1 161.2v178.7c0 28.5-5.4 56.4-16 83.1l-73.2-45.4-6.9 3.8c-12.6 6.9-50.2 24.7-72.5 24.7-24.7 0-58.3 19.7-77.3 32.3l-32.9-80.2-10.9 2.2c-37.3 7.2-105.4 41.4-149.8 65.2z" />
<glyph unicode="&#xe955;" d="M490.1 805.1s52.6-39.5 83.3-39.5c30.7 0 78.9-26.3 78.9-26.3l74.2 46.1 3.9 7c-39.5 80-121.8 135.6-216.7 135.6-95.6 0-178.4-56.3-217.6-137.3 39.8-21.7 118.9-63 158.9-71l35.1 85.4z" />
<glyph unicode="&#xe956;" d="M463.2 704.2l-10.9 2.2c-41.3 8.2-119.7 48.9-162.7 72.4l-11.2 6.1 5.6 11.5c20.6 42.7 52.6 78.8 92.5 104.5 41 26.5 88.5 40.4 137.2 40.4 48.4 0 95.5-13.8 136.4-39.9 39.6-25.3 71.6-61 92.4-103.2l3.1-6.3-9-16.2-83.8-52-6.9 3.7c-12.6 6.9-50.2 24.7-72.5 24.7-24.7 0-58.3 19.7-77.3 32.3l-32.9-80.2zM314 796.1c57.6-30.9 104.6-52.4 132.9-60.7l37.3 90.8 13.9-10.4c19-14.2 56.2-36.8 75.3-36.8 26.9 0 63-16.5 78.4-24.3l62.8 39c-18.6 34.6-45.8 63.9-79 85.1-36.6 23.4-78.7 35.7-122 35.7-43.6 0-86-12.5-122.7-36.2-32-20.7-58.4-48.9-76.9-82.2z" />
<glyph unicode="&#xe957;" d="M369 609.9c0-15.74 12.76-28.5 28.5-28.5s28.5 12.76 28.5 28.5c0 15.74-12.76 28.5-28.5 28.5s-28.5-12.76-28.5-28.5z" />
<glyph unicode="&#xe958;" d="M600.4 609.9c0-15.74 12.76-28.5 28.5-28.5s28.5 12.76 28.5 28.5c0 15.74-12.76 28.5-28.5 28.5s-28.5-12.76-28.5-28.5z" />
<glyph unicode="&#xe959;" d="M579.5 535.4c0-36.5-29.9-66.3-66.3-66.3-36.5 0-66.3 29.9-66.3 66.3z" />
<glyph unicode="&#xe95a;" d="M513.2 455.6c-44 0-79.8 35.8-79.8 79.8 0 7.4 6 13.4 13.4 13.4s13.4-6 13.4-13.4c0-29.2 23.7-52.9 52.9-52.9s52.9 23.7 52.9 52.9c0 7.4 6 13.4 13.4 13.4s13.4-6 13.4-13.4c0.2-44-35.6-79.8-79.6-79.8z" />
<glyph unicode="&#xe95b;" glyph-name="help" d="M512.001 895.977c-247.413 0-447.977-200.567-447.977-447.977s200.567-447.977 447.977-447.977c247.41 0 447.977 200.568 447.977 447.977 0.001 247.411-200.567 447.977-447.977 447.977zM547.13 202.090h-64.855v59.452h64.855v-59.452zM587.664 445.297c-28.838-28.84-43.237-52.273-43.237-70.26v-56.748h-59.45v48.641c0 32.428 20.69 68.443 62.151 108.092 36.015 36.016 54.047 67.56 54.047 94.581-3.63 52.23-30.653 79.253-81.069 81.069-59.452-1.815-90.107-37.832-91.878-108.092h-56.748c3.589 97.283 53.116 147.698 148.626 151.329 82.844-1.815 127.007-44.166 132.413-127.008 0-39.648-21.618-80.183-64.855-121.604z" />
<glyph unicode="&#xe95c;" d="M896 128h-768v341.333l384 362.667 384-362.667z" />
<glyph unicode="&#xe95d;" d="M832 512l-106.667 106.667v149.333h106.667zM128 128h768v-106.667h-768z" />
<glyph unicode="&#xe95e;" d="M512 868.267l-426.667-396.8 42.667-46.933 384 356.267 384-356.267 42.667 46.933z" />
<glyph unicode="&#xe95f;" d="M384 362.667h256v-341.333h-256z" />
<glyph unicode="&#xe960;" d="M448 597.333h128v-128h-128z" />
<glyph unicode="&#xe961;" d="M586.667 202.667c-6.4 0-10.667-4.267-10.667-10.667v-42.667c0-6.4 4.267-10.667 10.667-10.667s10.667 4.267 10.667 10.667v42.667c0 6.4-4.267 10.667-10.667 10.667z" />
<glyph unicode="&#xe962;" glyph-name="position" d="M839.185 577.605q0-9.375-0.469-17.813t-1.406-17.813q-8.438-77.813-34.219-149.531t-65.156-137.813-90.938-127.031-111.563-117.188q-8.438-10.313-21.563-10.313-14.063 0-22.5 10.313-60 56.25-112.031 118.125t-91.875 129.375-65.625 140.156-33.281 151.406q0 7.5-0.469 14.063t-0.469 14.063q0 65.625 25.781 123.75t69.844 101.25 103.594 68.438 127.031 25.313 126.563-25.313 103.125-68.438 69.844-101.25 25.781-123.75zM513.872 431.355q30.938 0 58.125 11.719t47.344 31.406 31.875 46.406 11.719 56.719-11.719 56.719-31.875 46.406-47.344 31.406-58.125 11.719-58.125-11.719-47.813-31.406-32.344-46.406-11.719-56.719 11.719-56.719 32.344-46.406 47.813-31.406 58.125-11.719z" />
<glyph unicode="&#xe963;" d="M853.333 106.667c-147.2 0-341.333-85.333-341.333-85.333v469.333s192 85.333 384 85.333l-42.667-469.333z" />
<glyph unicode="&#xe964;" d="M170.667 106.667c147.2 0 341.333-85.333 341.333-85.333v469.333s-192 85.333-384 85.333l42.667-469.333z" />
<glyph unicode="&#xe965;" d="M341.333 704c0-94.257 76.41-170.667 170.667-170.667s170.667 76.41 170.667 170.667c0 94.257-76.41 170.667-170.667 170.667s-170.667-76.41-170.667-170.667z" />
<glyph unicode="&#xe966;" d="M874.667 277.333h21.333c12.8 0 21.333 8.533 21.333 21.333v85.333c0 12.8-8.533 21.333-21.333 21.333h-21.333c-36.267 0-64-27.733-64-64s27.733-64 64-64zM149.333 405.333h-21.333c-12.8 0-21.333-8.533-21.333-21.333v-85.333c0-12.8 8.533-21.333 21.333-21.333h21.333c36.267 0 64 27.733 64 64s-27.733 64-64 64z" />
<glyph unicode="&#xe967;" glyph-name="retroaction" d="M921.6 908.8h-819.2c-56.602 0-102.4-45.798-102.4-102.4v-563.2c0-56.602 45.798-102.4 102.4-102.4h51.2v-153.6l192 153.6h576c56.602 0 102.4 45.798 102.4 102.4v563.2c0 56.602-45.798 102.4-102.4 102.4zM819.2 345.6h-614.4v51.2h614.4v-51.2zM819.2 499.2h-614.4v51.2h614.4v-51.2zM819.2 652.8h-614.4v51.2h614.4v-51.2z" />
<glyph unicode="&#xe968;" glyph-name="rmb" d="M511.982 960c-282.724 0-511.982-229.222-511.982-511.982 0-282.724 229.258-512.018 511.982-512.018s512.018 229.295 512.018 512.018c0 282.76-229.258 511.982-512.018 511.982zM703.646 701.23l-155.021-189.214h149.682c17.042 0 30.865-13.824 30.865-30.865s-13.824-30.865-30.865-30.865h-156.557v-86.854h156.557c17.042 0 30.865-13.787 30.865-30.865 0-17.005-13.824-30.865-30.865-30.865h-156.557v-158.861c0-17.078-13.824-30.865-30.865-30.865-17.078 0-30.902 13.787-30.902 30.865v158.861h-156.52c-17.078 0-30.902 13.86-30.902 30.865 0 17.078 13.824 30.865 30.902 30.865h156.52v86.854h-156.52c-17.078 0-30.902 13.824-30.902 30.865s13.824 30.865 30.902 30.865h147.304l-155.057 189.214c-11.995 12.068-11.995 31.597 0 43.628 12.068 12.068 31.597 12.068 43.628 0l150.303-183.399 150.376 183.399c12.032 12.068 31.487 12.068 43.555 0 12.141-11.995 12.141-31.56 0.073-43.628z" />
<glyph unicode="&#xe969;" glyph-name="time" d="M513.1 793.3c-190.5 0-345-154.5-345-345s154.5-345 345-345 345 154.5 345 345-154.5 345-345 345zM778.6 424.2c0-10.7-8.5-19.2-19.1-19.2h-249.7v-19.3c0-10.5-8.6-19.1-19.2-19.1-10.7 0-19.2 8.5-19.2 19.1v19.3h-19.3c-10.5 0-19.1 8.6-19.1 19.2 0 10.7 8.5 19.2 19.1 19.2h19.3v249.7c0 10.5 8.6 19.1 19.2 19.1 10.7 0 19.2-8.5 19.2-19.1v-249.7h249.7c10.5 0 19.1-8.6 19.1-19.2zM513.1 895.7c-247 0-447.3-200.3-447.3-447.3s200.2-447.4 447.3-447.4 447.3 200.3 447.3 447.3-200.3 447.4-447.3 447.4zM807.7 153.7c-38.3-38.3-82.8-68.3-132.4-89.3-51.3-21.7-105.9-32.7-162.2-32.7s-110.8 11-162.2 32.7c-49.6 21-94.2 51-132.4 89.3-38.3 38.3-68.3 82.8-89.3 132.4-21.7 51.3-32.7 105.9-32.7 162.2s11 110.8 32.7 162.2c21 49.6 51 94.2 89.3 132.4s82.8 68.3 132.4 89.3c51.4 21.7 105.9 32.8 162.2 32.8s110.8-11 162.2-32.7c49.6-21 94.2-51 132.4-89.3s68.3-82.8 89.3-132.4c21.7-51.4 32.7-106 32.7-162.3s-11-110.8-32.7-162.2c-21-49.6-51-94.2-89.3-132.4z" />
</font>
</defs>
</svg>
